<svg id="Layer_1" data-name="Layer 1" xmlns="http://www.w3.org/2000/svg" viewBox="0 0 750 1334"><defs><style>.cls-1{fill:#abcdff;}.cls-2{fill:#ec71cc;}.cls-3{fill:#fff;}.cls-4{fill:#89afd3;}.cls-5{font-size:93.12px;}.cls-5,.cls-6{fill:#3f77bc;font-family:VT323-Regular, VT323;}.cls-6{font-size:75.15px;}</style></defs><rect class="cls-1" width="750" height="1334"/><path class="cls-2" d="M205.31,528.07,204,522.29a48.93,48.93,0,0,1-1.17-11.36c0-.73,0-1.43,0-2.12h-7.13L194.31,503a50.2,50.2,0,0,1-1.16-11.36c0-.72,0-1.43,0-2.12h-7.13l-1.37-5.79a50.05,50.05,0,0,1-1.16-11.35,52,52,0,0,1,.79-9.67,52.63,52.63,0,0,1-.79-9.6,51.86,51.86,0,0,1,.79-9.66,52.79,52.79,0,0,1-.79-9.6,47.9,47.9,0,0,1,1.18-11.46l1.43-5.69h7.05c0-.69,0-1.39,0-2.11a47.29,47.29,0,0,1,1.19-11.46l1.42-5.69h7.05c0-.69,0-1.4,0-2.12A47.29,47.29,0,0,1,204,383.88l1.43-5.69h59.89l1.42,5.7a47.43,47.43,0,0,1,1.19,11.45c0,.72,0,1.43,0,2.12h7.06l1.42,5.7a47.37,47.37,0,0,1,1.19,11.45A50.21,50.21,0,0,1,276.37,426l-1.36,5.8H243.84L242.47,426a49.43,49.43,0,0,1-1.16-11.35c0-.73,0-1.44,0-2.12h-12c0,.68,0,1.39,0,2.12A50.21,50.21,0,0,1,228.21,426l-1.36,5.8h-7.14c0,.69,0,1.39,0,2.12a53.09,53.09,0,0,1-.8,9.59,51.29,51.29,0,0,1,.8,9.67,53.21,53.21,0,0,1-.8,9.6,51.22,51.22,0,0,1,.8,9.67c0,.72,0,1.42,0,2.12h7.06l1.42,5.69a47.49,47.49,0,0,1,1.19,11.45c0,.72,0,1.43,0,2.12h12c0-.69,0-1.4,0-2.12a52,52,0,0,1,.79-9.67,53.9,53.9,0,0,1-.79-9.59c0-.73,0-1.43,0-2.12h-12L228,464.49a49.52,49.52,0,0,1-1.16-11.36,47.26,47.26,0,0,1,1.19-11.45l1.42-5.69h45.45l1.42,5.7a47.34,47.34,0,0,1,1.19,11.44,53.21,53.21,0,0,1-.8,9.6,51.14,51.14,0,0,1,.8,9.67,53.09,53.09,0,0,1-.8,9.59,51.22,51.22,0,0,1,.8,9.67A50.3,50.3,0,0,1,276.37,503l-1.36,5.8h-7.14c0,.69,0,1.39,0,2.12a50.3,50.3,0,0,1-1.16,11.35l-1.36,5.79Z"/><path class="cls-3" d="M270,453.13a42.57,42.57,0,0,1-1,9.64,40.6,40.6,0,0,1,1,9.63,42.54,42.54,0,0,1-1,9.63,40.6,40.6,0,0,1,1,9.63,42.41,42.41,0,0,1-1,9.63h-9.63a40.69,40.69,0,0,1,1,9.64,42.58,42.58,0,0,1-1,9.63H211.26a42.58,42.58,0,0,1-1-9.63,40.69,40.69,0,0,1,1-9.64h-9.63a41.85,41.85,0,0,1-1-9.63,40.09,40.09,0,0,1,1-9.63H192a42.58,42.58,0,0,1-1-9.63,40.66,40.66,0,0,1,1-9.63,42.61,42.61,0,0,1-1-9.64,40.66,40.66,0,0,1,1-9.63,42.58,42.58,0,0,1-1-9.63,40.66,40.66,0,0,1,1-9.63h9.64a42,42,0,0,1-1-9.63,40.12,40.12,0,0,1,1-9.64h9.63a42.46,42.46,0,0,1-1-9.63,40.66,40.66,0,0,1,1-9.63h48.16a40.66,40.66,0,0,1,1,9.63,42.46,42.46,0,0,1-1,9.63h9.63a40.63,40.63,0,0,1,1,9.64,42.54,42.54,0,0,1-1,9.63H249.79a42,42,0,0,1-1-9.63,40.12,40.12,0,0,1,1-9.64h-28.9a40.63,40.63,0,0,1,1,9.64,42.54,42.54,0,0,1-1,9.63h-9.63a40.66,40.66,0,0,1,1,9.63,42.58,42.58,0,0,1-1,9.63,40.66,40.66,0,0,1,1,9.63,42.61,42.61,0,0,1-1,9.64,40.66,40.66,0,0,1,1,9.63,42.58,42.58,0,0,1-1,9.63h9.63a40.6,40.6,0,0,1,1,9.63,42.41,42.41,0,0,1-1,9.63h28.9a41.85,41.85,0,0,1-1-9.63,40.09,40.09,0,0,1,1-9.63,42,42,0,0,1-1-9.63,40.09,40.09,0,0,1,1-9.63H235.34a42.61,42.61,0,0,1-1-9.64,40.66,40.66,0,0,1,1-9.63h33.71A40.6,40.6,0,0,1,270,453.13Z"/><path class="cls-2" d="M340.16,528.07l-1.37-5.78a49.52,49.52,0,0,1-1.16-11.36,52,52,0,0,1,.79-9.67,52.63,52.63,0,0,1-.79-9.6c0-.72,0-1.43,0-2.12H316c0,.69,0,1.4,0,2.12a53.21,53.21,0,0,1-.8,9.6,51.07,51.07,0,0,1,.8,9.67,50.3,50.3,0,0,1-1.16,11.35l-1.36,5.79H282.37L281,522.28a50.05,50.05,0,0,1-1.16-11.35,51.9,51.9,0,0,1,.79-9.67,53.1,53.1,0,0,1-.79-9.6A47.26,47.26,0,0,1,281,480.21l1.42-5.69h4.64c0-.7,0-1.4,0-2.12a51.07,51.07,0,0,1,.8-9.67,51.71,51.71,0,0,1-.8-9.6,47.26,47.26,0,0,1,1.19-11.45l1.42-5.69h2.24c0-.69,0-1.4,0-2.12a47.9,47.9,0,0,1,1.18-11.46l1.43-5.69h4.64c0-.69,0-1.39,0-2.11a47.29,47.29,0,0,1,1.19-11.46l1.42-5.69H304c0-.69,0-1.4,0-2.12a47.81,47.81,0,0,1,1.18-11.45l1.43-5.7h40.63l1.42,5.7a47.49,47.49,0,0,1,1.19,11.45c0,.72,0,1.43,0,2.12H352l1.42,5.7a47.37,47.37,0,0,1,1.19,11.45c0,.71,0,1.42,0,2.11h4.66l1.42,5.71a47.9,47.9,0,0,1,1.18,11.44c0,.72,0,1.42,0,2.12H364l1.42,5.7a47.29,47.29,0,0,1,1.19,11.44,53.21,53.21,0,0,1-.8,9.6,52,52,0,0,1,.8,9.67c0,.72,0,1.42,0,2.12h4.66l1.41,5.69a47.43,47.43,0,0,1,1.19,11.45,53.21,53.21,0,0,1-.8,9.6,51.07,51.07,0,0,1,.8,9.67,50.3,50.3,0,0,1-1.16,11.35l-1.36,5.79Zm-9.72-72.82c0-.69,0-1.39,0-2.12s0-1.43,0-2.11h-2.32l-1.28-5.41L325.57,451h-2.32c0,.68,0,1.39,0,2.11s0,1.43,0,2.12Z"/><path class="cls-3" d="M365.37,501.29a40.63,40.63,0,0,1,1,9.64,42.54,42.54,0,0,1-1,9.63H346.11a42,42,0,0,1-1-9.63,40.12,40.12,0,0,1,1-9.64,41.85,41.85,0,0,1-1-9.63,40.09,40.09,0,0,1,1-9.63H307.58a40.66,40.66,0,0,1,1,9.63,42.46,42.46,0,0,1-1,9.63,40.69,40.69,0,0,1,1,9.64,42.58,42.58,0,0,1-1,9.63H288.32a42,42,0,0,1-1-9.63,40.12,40.12,0,0,1,1-9.64,41.85,41.85,0,0,1-1-9.63,40.09,40.09,0,0,1,1-9.63h7.22a42.58,42.58,0,0,1-1-9.63,40.66,40.66,0,0,1,1-9.63,42.61,42.61,0,0,1-1-9.64,40.66,40.66,0,0,1,1-9.63h4.82a42,42,0,0,1-1-9.63,40.09,40.09,0,0,1,1-9.63h7.22a42.58,42.58,0,0,1-1-9.63,40.69,40.69,0,0,1,1-9.64h4.81a42.46,42.46,0,0,1-1-9.63,40.66,40.66,0,0,1,1-9.63h28.9a40.6,40.6,0,0,1,1,9.63,42.41,42.41,0,0,1-1,9.63h4.82a40.69,40.69,0,0,1,1,9.64,42.58,42.58,0,0,1-1,9.63h7.22a40.6,40.6,0,0,1,1,9.63,42.54,42.54,0,0,1-1,9.63h4.82a40.66,40.66,0,0,1,1,9.63,42.61,42.61,0,0,1-1,9.64,40.66,40.66,0,0,1,1,9.63,42.58,42.58,0,0,1-1,9.63h7.22a40.6,40.6,0,0,1,1,9.63A42.41,42.41,0,0,1,365.37,501.29Zm-27.45-48.16a40.66,40.66,0,0,1,1-9.63h-4.81a42,42,0,0,1-1-9.63,40.09,40.09,0,0,1,1-9.63H319.62a40.66,40.66,0,0,1,1,9.63,42.58,42.58,0,0,1-1,9.63H314.8a40.6,40.6,0,0,1,1,9.63,42.57,42.57,0,0,1-1,9.64h24.08A42.61,42.61,0,0,1,337.92,453.13Z"/><path class="cls-2" d="M436.48,528.07l-1.37-5.78A49.52,49.52,0,0,1,434,510.93c0-.73,0-1.43,0-2.12H412.35c0,.69,0,1.39,0,2.12a49.7,49.7,0,0,1-1.17,11.35l-1.36,5.79H378.69l-1.37-5.79a50.05,50.05,0,0,1-1.16-11.35,51.9,51.9,0,0,1,.79-9.67,53.1,53.1,0,0,1-.79-9.6A52,52,0,0,1,377,482a53,53,0,0,1-.79-9.59,52,52,0,0,1,.79-9.67,52.63,52.63,0,0,1-.79-9.6,51.86,51.86,0,0,1,.79-9.66,52.79,52.79,0,0,1-.79-9.6,52,52,0,0,1,.79-9.67,52.59,52.59,0,0,1-.79-9.59,51.9,51.9,0,0,1,.79-9.67,53.1,53.1,0,0,1-.79-9.6,47.81,47.81,0,0,1,1.18-11.45l1.43-5.7h35.82l1.42,5.7a48,48,0,0,1,1.18,11.45c0,.72,0,1.43,0,2.12h4.65l1.35,5.43,1.36-5.43h4.65c0-.69,0-1.4,0-2.12a47.26,47.26,0,0,1,1.19-11.45l1.42-5.7h35.82l1.42,5.7a47.43,47.43,0,0,1,1.19,11.45,53.21,53.21,0,0,1-.8,9.6,51.07,51.07,0,0,1,.8,9.67,53.09,53.09,0,0,1-.8,9.59,51.14,51.14,0,0,1,.8,9.67,53,53,0,0,1-.8,9.59,51.22,51.22,0,0,1,.8,9.67,53.21,53.21,0,0,1-.8,9.6,51.14,51.14,0,0,1,.8,9.67,53,53,0,0,1-.8,9.59,51.22,51.22,0,0,1,.8,9.67,53.21,53.21,0,0,1-.8,9.6,51.07,51.07,0,0,1,.8,9.67A50.3,50.3,0,0,1,469,522.28l-1.36,5.79Z"/><path class="cls-3" d="M462.65,414.61a42.58,42.58,0,0,1-1,9.63,40.66,40.66,0,0,1,1,9.63,42.58,42.58,0,0,1-1,9.63,40.66,40.66,0,0,1,1,9.63,42.61,42.61,0,0,1-1,9.64,40.66,40.66,0,0,1,1,9.63,42.58,42.58,0,0,1-1,9.63,40.66,40.66,0,0,1,1,9.63,42.46,42.46,0,0,1-1,9.63,40.69,40.69,0,0,1,1,9.64,42.58,42.58,0,0,1-1,9.63H442.43a42,42,0,0,1-1-9.63,40.12,40.12,0,0,1,1-9.64,41.85,41.85,0,0,1-1-9.63,40.09,40.09,0,0,1,1-9.63,42,42,0,0,1-1-9.63,40.09,40.09,0,0,1,1-9.63,42,42,0,0,1-1-9.64,40.09,40.09,0,0,1,1-9.63,42,42,0,0,1-1-9.63,40.09,40.09,0,0,1,1-9.63H435.2a40.6,40.6,0,0,1,1,9.63,42.54,42.54,0,0,1-1,9.63,40.6,40.6,0,0,1,1,9.63,42.57,42.57,0,0,1-1,9.64h-4.81a40.66,40.66,0,0,1,1,9.63,42.58,42.58,0,0,1-1,9.63,40.66,40.66,0,0,1,1,9.63,42.46,42.46,0,0,1-1,9.63H415.94a42.46,42.46,0,0,1-1-9.63,40.66,40.66,0,0,1,1-9.63,42.58,42.58,0,0,1-1-9.63,40.66,40.66,0,0,1,1-9.63h-4.82a42.61,42.61,0,0,1-1-9.64,40.66,40.66,0,0,1,1-9.63,42.58,42.58,0,0,1-1-9.63,40.66,40.66,0,0,1,1-9.63H403.9a40.66,40.66,0,0,1,1,9.63,42.58,42.58,0,0,1-1,9.63,40.66,40.66,0,0,1,1,9.63,42.61,42.61,0,0,1-1,9.64,40.66,40.66,0,0,1,1,9.63,42.58,42.58,0,0,1-1,9.63,40.66,40.66,0,0,1,1,9.63,42.46,42.46,0,0,1-1,9.63,40.69,40.69,0,0,1,1,9.64,42.58,42.58,0,0,1-1,9.63H384.63a42.58,42.58,0,0,1-1-9.63,40.69,40.69,0,0,1,1-9.64,42.46,42.46,0,0,1-1-9.63,40.66,40.66,0,0,1,1-9.63,42.58,42.58,0,0,1-1-9.63,40.66,40.66,0,0,1,1-9.63,42.61,42.61,0,0,1-1-9.64,40.66,40.66,0,0,1,1-9.63,42.58,42.58,0,0,1-1-9.63,40.66,40.66,0,0,1,1-9.63,42.58,42.58,0,0,1-1-9.63,40.69,40.69,0,0,1,1-9.64,42.46,42.46,0,0,1-1-9.63,40.66,40.66,0,0,1,1-9.63h24.08a40.6,40.6,0,0,1,1,9.63,42.41,42.41,0,0,1-1,9.63h7.23a40.69,40.69,0,0,1,1,9.64,42.58,42.58,0,0,1-1,9.63h3.61a40.66,40.66,0,0,1,1,9.63,42.58,42.58,0,0,1-1,9.63h7.22a42.58,42.58,0,0,1-1-9.63,40.66,40.66,0,0,1,1-9.63h3.62a42,42,0,0,1-1-9.63,40.12,40.12,0,0,1,1-9.64h7.22a42.46,42.46,0,0,1-1-9.63,40.66,40.66,0,0,1,1-9.63h24.08a40.66,40.66,0,0,1,1,9.63,42.46,42.46,0,0,1-1,9.63A40.69,40.69,0,0,1,462.65,414.61Z"/><path class="cls-2" d="M484.64,528.07l-1.37-5.79a50.05,50.05,0,0,1-1.16-11.35,51.9,51.9,0,0,1,.79-9.67,54,54,0,0,1-.79-9.6,52,52,0,0,1,.79-9.67,53.9,53.9,0,0,1-.79-9.59,52,52,0,0,1,.79-9.67,52.63,52.63,0,0,1-.79-9.6,51.86,51.86,0,0,1,.79-9.66,52.79,52.79,0,0,1-.79-9.6,52,52,0,0,1,.79-9.67,52.59,52.59,0,0,1-.79-9.59,51.9,51.9,0,0,1,.79-9.67,54,54,0,0,1-.79-9.6,47.26,47.26,0,0,1,1.19-11.45l1.42-5.7h69.53l1.42,5.7a47.43,47.43,0,0,1,1.19,11.45,50.24,50.24,0,0,1-1.16,11.35l-1.36,5.8h-36c0,.68,0,1.39,0,2.12a53.17,53.17,0,0,1-.8,9.59,51.22,51.22,0,0,1,.8,9.67c0,.72,0,1.42,0,2.12h36l1.42,5.7a47.29,47.29,0,0,1,1.19,11.44,50.18,50.18,0,0,1-1.16,11.35l-1.36,5.8h-36c0,.69,0,1.39,0,2.12a53.09,53.09,0,0,1-.8,9.59,51.22,51.22,0,0,1,.8,9.67c0,.72,0,1.43,0,2.12h36l1.42,5.7a47.37,47.37,0,0,1,1.19,11.45,50.3,50.3,0,0,1-1.16,11.35l-1.36,5.79Z"/><path class="cls-3" d="M509.85,462.77a40.66,40.66,0,0,1,1,9.63,42.58,42.58,0,0,1-1,9.63,40.66,40.66,0,0,1,1,9.63,42.46,42.46,0,0,1-1,9.63h38.53a40.69,40.69,0,0,1,1,9.64,42.58,42.58,0,0,1-1,9.63H490.59a42,42,0,0,1-1-9.63,40.12,40.12,0,0,1,1-9.64,41.85,41.85,0,0,1-1-9.63,40.09,40.09,0,0,1,1-9.63,42,42,0,0,1-1-9.63,40.09,40.09,0,0,1,1-9.63,42,42,0,0,1-1-9.64,40.09,40.09,0,0,1,1-9.63,42,42,0,0,1-1-9.63,40.09,40.09,0,0,1,1-9.63,42,42,0,0,1-1-9.63,40.12,40.12,0,0,1,1-9.64,41.85,41.85,0,0,1-1-9.63,40.09,40.09,0,0,1,1-9.63h57.79a40.66,40.66,0,0,1,1,9.63,42.46,42.46,0,0,1-1,9.63H509.85a40.69,40.69,0,0,1,1,9.64,42.58,42.58,0,0,1-1,9.63,40.66,40.66,0,0,1,1,9.63,42.58,42.58,0,0,1-1,9.63h38.53a40.66,40.66,0,0,1,1,9.63,42.61,42.61,0,0,1-1,9.64Z"/><path class="cls-2" d="M205.31,728,204,722.18a48.93,48.93,0,0,1-1.17-11.36c0-.73,0-1.43,0-2.12h-9.54l-1.37-5.79a50.2,50.2,0,0,1-1.16-11.36c0-.72,0-1.43,0-2.11h-4.72l-1.37-5.79a50.2,50.2,0,0,1-1.16-11.36,52,52,0,0,1,.79-9.67,52.59,52.59,0,0,1-.79-9.59,52,52,0,0,1,.79-9.67,52.63,52.63,0,0,1-.79-9.6,47.81,47.81,0,0,1,1.18-11.45l1.43-5.7h4.64c0-.68,0-1.39,0-2.11A47.35,47.35,0,0,1,191.93,603l1.42-5.69h9.46c0-.69,0-1.39,0-2.12A47.4,47.4,0,0,1,204,583.77l1.43-5.68h50.26l1.42,5.7a47.29,47.29,0,0,1,1.19,11.44c0,.72,0,1.43,0,2.12h9.47l1.42,5.7a47.43,47.43,0,0,1,1.19,11.45c0,.72,0,1.42,0,2.11h4.65l1.42,5.7a47.49,47.49,0,0,1,1.19,11.45,53.21,53.21,0,0,1-.8,9.6,51.14,51.14,0,0,1,.8,9.67,53.17,53.17,0,0,1-.8,9.59,51.22,51.22,0,0,1,.8,9.67,50.3,50.3,0,0,1-1.16,11.35l-1.36,5.8h-4.73c0,.68,0,1.39,0,2.11a50.3,50.3,0,0,1-1.16,11.35l-1.36,5.8h-9.55c0,.69,0,1.39,0,2.12a50.27,50.27,0,0,1-1.17,11.35l-1.36,5.8Zm28.81-34.3c0-.69,0-1.4,0-2.12a47.3,47.3,0,0,1,1.18-11.45l1.43-5.69h4.64c0-.7,0-1.4,0-2.12a52,52,0,0,1,.79-9.67,52.59,52.59,0,0,1-.79-9.59,52,52,0,0,1,.79-9.67,52.63,52.63,0,0,1-.79-9.6c0-.72,0-1.43,0-2.12h-4.73l-1.36-5.79a49.43,49.43,0,0,1-1.16-11.35c0-.73,0-1.43,0-2.12h-7.19c0,.69,0,1.39,0,2.12a50.27,50.27,0,0,1-1.16,11.34l-1.36,5.8h-4.73c0,.69,0,1.4,0,2.12a53.21,53.21,0,0,1-.8,9.6,51.14,51.14,0,0,1,.8,9.67,53.17,53.17,0,0,1-.8,9.59,51.22,51.22,0,0,1,.8,9.67c0,.72,0,1.42,0,2.12h4.66l1.42,5.7A48,48,0,0,1,227,691.55c0,.72,0,1.43,0,2.12Z"/><path class="cls-3" d="M270,653a42.54,42.54,0,0,1-1,9.63,40.6,40.6,0,0,1,1,9.63,42.54,42.54,0,0,1-1,9.63h-7.22a40.66,40.66,0,0,1,1,9.63,42.61,42.61,0,0,1-1,9.64h-12a40.66,40.66,0,0,1,1,9.63,42.58,42.58,0,0,1-1,9.63H211.26a42.58,42.58,0,0,1-1-9.63,40.66,40.66,0,0,1,1-9.63h-12a42.61,42.61,0,0,1-1-9.64,40.66,40.66,0,0,1,1-9.63H192a42.58,42.58,0,0,1-1-9.63,40.66,40.66,0,0,1,1-9.63,42.58,42.58,0,0,1-1-9.63,40.69,40.69,0,0,1,1-9.64,42.46,42.46,0,0,1-1-9.63,40.66,40.66,0,0,1,1-9.63h7.23a42.58,42.58,0,0,1-1-9.63,40.69,40.69,0,0,1,1-9.64h12a42.46,42.46,0,0,1-1-9.63,40.66,40.66,0,0,1,1-9.63h38.53a40.66,40.66,0,0,1,1,9.63,42.46,42.46,0,0,1-1,9.63h12a40.69,40.69,0,0,1,1,9.64,42.58,42.58,0,0,1-1,9.63h7.22a40.6,40.6,0,0,1,1,9.63,42.41,42.41,0,0,1-1,9.63A40.63,40.63,0,0,1,270,653Zm-21.2,19.26a40.09,40.09,0,0,1,1-9.63,42,42,0,0,1-1-9.63,40.12,40.12,0,0,1,1-9.64,41.85,41.85,0,0,1-1-9.63,40.09,40.09,0,0,1,1-9.63h-7.23a42.58,42.58,0,0,1-1-9.63,40.69,40.69,0,0,1,1-9.64H218.48a40.63,40.63,0,0,1,1,9.64,42.54,42.54,0,0,1-1,9.63h-7.22a40.66,40.66,0,0,1,1,9.63,42.46,42.46,0,0,1-1,9.63,40.69,40.69,0,0,1,1,9.64,42.58,42.58,0,0,1-1,9.63,40.66,40.66,0,0,1,1,9.63,42.58,42.58,0,0,1-1,9.63h7.22a40.6,40.6,0,0,1,1,9.63,42.57,42.57,0,0,1-1,9.64h24.08a42.61,42.61,0,0,1-1-9.64,40.66,40.66,0,0,1,1-9.63h7.23A42,42,0,0,1,248.82,672.29Z"/><path class="cls-2" d="M311.27,728l-1.37-5.79a49.42,49.42,0,0,1-1.17-11.36c0-.73,0-1.43,0-2.12h-7.13l-1.37-5.79a50.2,50.2,0,0,1-1.16-11.36c0-.72,0-1.43,0-2.11h-2.31l-1.37-5.79a49.46,49.46,0,0,1-1.16-11.36c0-.73,0-1.43,0-2.12h-4.73l-1.36-5.79A48.84,48.84,0,0,1,287.06,653c0-.73,0-1.44,0-2.12h-4.72L281,645.12a49.52,49.52,0,0,1-1.16-11.36,51.79,51.79,0,0,1,.79-9.66,52.79,52.79,0,0,1-.79-9.6,51.9,51.9,0,0,1,.79-9.67,53.1,53.1,0,0,1-.79-9.6A47.26,47.26,0,0,1,281,583.78l1.42-5.69h31l1.42,5.7a47.29,47.29,0,0,1,1.19,11.44,53.21,53.21,0,0,1-.8,9.6,51.14,51.14,0,0,1,.8,9.67,53,53,0,0,1-.8,9.59,51.22,51.22,0,0,1,.8,9.67c0,.72,0,1.43,0,2.12h4.66l1.42,5.7A47.93,47.93,0,0,1,323.28,653c0,.71,0,1.42,0,2.11h7.19c0-.69,0-1.39,0-2.11a46.8,46.8,0,0,1,1.19-11.46l1.42-5.69h4.64c0-.69,0-1.4,0-2.12a51.79,51.79,0,0,1,.79-9.66,52.79,52.79,0,0,1-.79-9.6,52,52,0,0,1,.79-9.67,52.63,52.63,0,0,1-.79-9.6,47.4,47.4,0,0,1,1.19-11.46l1.42-5.68h31l1.41,5.7a47.29,47.29,0,0,1,1.19,11.44,53.21,53.21,0,0,1-.8,9.6,51.14,51.14,0,0,1,.8,9.67,53,53,0,0,1-.8,9.59,51.22,51.22,0,0,1,.8,9.67,50.24,50.24,0,0,1-1.16,11.35l-1.36,5.8H366.6c0,.69,0,1.39,0,2.12a49.54,49.54,0,0,1-1.17,11.34l-1.36,5.8h-4.73c0,.69,0,1.39,0,2.12a50.24,50.24,0,0,1-1.16,11.35l-1.36,5.8h-2.32c0,.68,0,1.39,0,2.11a49.57,49.57,0,0,1-1.17,11.35l-1.36,5.8h-7.14c0,.69,0,1.39,0,2.12a50.3,50.3,0,0,1-1.16,11.35l-1.36,5.8Z"/><path class="cls-3" d="M366.34,614.5a42.54,42.54,0,0,1-1,9.63,40.6,40.6,0,0,1,1,9.63,42.41,42.41,0,0,1-1,9.63h-7.22a40.69,40.69,0,0,1,1,9.64,42.58,42.58,0,0,1-1,9.63h-7.23a40.6,40.6,0,0,1,1,9.63,42.54,42.54,0,0,1-1,9.63h-4.81a40.66,40.66,0,0,1,1,9.63,42.61,42.61,0,0,1-1,9.64h-9.63a40.66,40.66,0,0,1,1,9.63,42.58,42.58,0,0,1-1,9.63H317.21a42.58,42.58,0,0,1-1-9.63,40.66,40.66,0,0,1,1-9.63h-9.63a42.61,42.61,0,0,1-1-9.64,40.66,40.66,0,0,1,1-9.63h-4.82a42.58,42.58,0,0,1-1-9.63,40.66,40.66,0,0,1,1-9.63h-7.22a42.58,42.58,0,0,1-1-9.63,40.69,40.69,0,0,1,1-9.64h-7.22a41.85,41.85,0,0,1-1-9.63,40.09,40.09,0,0,1,1-9.63,42,42,0,0,1-1-9.63,40.12,40.12,0,0,1,1-9.64,41.85,41.85,0,0,1-1-9.63,40.09,40.09,0,0,1,1-9.63h19.26a40.66,40.66,0,0,1,1,9.63,42.46,42.46,0,0,1-1,9.63,40.69,40.69,0,0,1,1,9.64,42.58,42.58,0,0,1-1,9.63,40.66,40.66,0,0,1,1,9.63,42.46,42.46,0,0,1-1,9.63h7.22a40.63,40.63,0,0,1,1,9.64,42.54,42.54,0,0,1-1,9.63H322a40.66,40.66,0,0,1,1,9.63,42.58,42.58,0,0,1-1,9.63h9.63a42.58,42.58,0,0,1-1-9.63,40.66,40.66,0,0,1,1-9.63h7.22a42.58,42.58,0,0,1-1-9.63,40.69,40.69,0,0,1,1-9.64h7.23a41.85,41.85,0,0,1-1-9.63,40.09,40.09,0,0,1,1-9.63,42,42,0,0,1-1-9.63,40.12,40.12,0,0,1,1-9.64,41.85,41.85,0,0,1-1-9.63,40.09,40.09,0,0,1,1-9.63h19.26a40.6,40.6,0,0,1,1,9.63,42.41,42.41,0,0,1-1,9.63A40.63,40.63,0,0,1,366.34,614.5Z"/><path class="cls-2" d="M388.32,728,387,722.18a49.52,49.52,0,0,1-1.16-11.36,52,52,0,0,1,.79-9.67,52.63,52.63,0,0,1-.79-9.6,51.86,51.86,0,0,1,.79-9.66,52.63,52.63,0,0,1-.79-9.6,52,52,0,0,1,.79-9.67,52.59,52.59,0,0,1-.79-9.59,52,52,0,0,1,.79-9.67,52.63,52.63,0,0,1-.79-9.6,51.79,51.79,0,0,1,.79-9.66,52.79,52.79,0,0,1-.79-9.6,52,52,0,0,1,.79-9.67,52.63,52.63,0,0,1-.79-9.6A47.4,47.4,0,0,1,387,583.77l1.42-5.68h69.53l1.42,5.7a47.34,47.34,0,0,1,1.19,11.44,49.7,49.7,0,0,1-1.17,11.35l-1.36,5.8H422c0,.69,0,1.39,0,2.12a53,53,0,0,1-.8,9.59,51.22,51.22,0,0,1,.8,9.67c0,.72,0,1.43,0,2.12h36l1.42,5.7A47.43,47.43,0,0,1,460.54,653a49.61,49.61,0,0,1-1.17,11.34l-1.36,5.8H422c0,.69,0,1.39,0,2.12a53.21,53.21,0,0,1-.8,9.6,51,51,0,0,1,.8,9.66c0,.72,0,1.43,0,2.12h36l1.42,5.7a47.43,47.43,0,0,1,1.19,11.45,49.7,49.7,0,0,1-1.17,11.35L458,728Z"/><path class="cls-3" d="M413.53,662.66a40.66,40.66,0,0,1,1,9.63,42.58,42.58,0,0,1-1,9.63,40.66,40.66,0,0,1,1,9.63,42.61,42.61,0,0,1-1,9.64h38.53a40.66,40.66,0,0,1,1,9.63,42.58,42.58,0,0,1-1,9.63H394.27a42,42,0,0,1-1-9.63,40.09,40.09,0,0,1,1-9.63,42,42,0,0,1-1-9.64,40.09,40.09,0,0,1,1-9.63,42,42,0,0,1-1-9.63,40.09,40.09,0,0,1,1-9.63,42,42,0,0,1-1-9.63,40.12,40.12,0,0,1,1-9.64,41.85,41.85,0,0,1-1-9.63,40.09,40.09,0,0,1,1-9.63,42,42,0,0,1-1-9.63,40.12,40.12,0,0,1,1-9.64,41.85,41.85,0,0,1-1-9.63,40.09,40.09,0,0,1,1-9.63h57.79a40.66,40.66,0,0,1,1,9.63,42.46,42.46,0,0,1-1,9.63H413.53a40.69,40.69,0,0,1,1,9.64,42.58,42.58,0,0,1-1,9.63,40.66,40.66,0,0,1,1,9.63,42.46,42.46,0,0,1-1,9.63h38.53a40.69,40.69,0,0,1,1,9.64,42.58,42.58,0,0,1-1,9.63Z"/><path class="cls-2" d="M532.8,728l-1.37-5.8a50.05,50.05,0,0,1-1.16-11.35c0-.73,0-1.43,0-2.12h-4.73l-1.36-5.79a50.14,50.14,0,0,1-1.16-11.36c0-.72,0-1.43,0-2.11h-4.73L517,683.65a50.2,50.2,0,0,1-1.16-11.36c0-.73,0-1.43,0-2.12h-7.18c0,.69,0,1.39,0,2.12a53.29,53.29,0,0,1-.8,9.6,51.1,51.1,0,0,1,.8,9.66,53.21,53.21,0,0,1-.8,9.6,51.22,51.22,0,0,1,.8,9.67,50.21,50.21,0,0,1-1.16,11.34L506.18,728H475l-1.36-5.8a50.05,50.05,0,0,1-1.16-11.35,52,52,0,0,1,.79-9.67,53.1,53.1,0,0,1-.79-9.6,51.86,51.86,0,0,1,.79-9.66,53.1,53.1,0,0,1-.79-9.6,52,52,0,0,1,.79-9.67,52.59,52.59,0,0,1-.79-9.59,52,52,0,0,1,.79-9.67,52.63,52.63,0,0,1-.79-9.6,51.79,51.79,0,0,1,.79-9.66,52.79,52.79,0,0,1-.79-9.6,51.9,51.9,0,0,1,.79-9.67,53.1,53.1,0,0,1-.79-9.6,47.3,47.3,0,0,1,1.18-11.45l1.43-5.69h79.16l1.42,5.7a47.29,47.29,0,0,1,1.19,11.44c0,.72,0,1.43,0,2.12h7.06l1.42,5.7a47.43,47.43,0,0,1,1.19,11.45,50.3,50.3,0,0,1-1.16,11.35L564,631.64h-2.33c0,.69,0,1.4,0,2.12a50.24,50.24,0,0,1-1.16,11.35l-1.36,5.8h-12c0,.69,0,1.39,0,2.12s0,1.42,0,2.11h2.25l1.42,5.71A47.9,47.9,0,0,1,552,672.29c0,.72,0,1.42,0,2.12h4.65l1.42,5.7a47.4,47.4,0,0,1,1.19,11.44c0,.72,0,1.43,0,2.12h4.65l1.42,5.7a47.43,47.43,0,0,1,1.19,11.45,50.3,50.3,0,0,1-1.16,11.35L564,728Zm-7.31-92.09c0-.69,0-1.4,0-2.12a50.88,50.88,0,0,1,.8-9.66,51.86,51.86,0,0,1-.8-9.6c0-.73,0-1.43,0-2.12H508.67c0,.69,0,1.39,0,2.12a53.17,53.17,0,0,1-.8,9.59,51.22,51.22,0,0,1,.8,9.67c0,.72,0,1.43,0,2.12Z"/><path class="cls-3" d="M558,701.19a40.66,40.66,0,0,1,1,9.63,42.58,42.58,0,0,1-1,9.63H538.75a42,42,0,0,1-1-9.63,40.09,40.09,0,0,1,1-9.63h-7.23a42.61,42.61,0,0,1-1-9.64,40.66,40.66,0,0,1,1-9.63H524.3a42.58,42.58,0,0,1-1-9.63,40.66,40.66,0,0,1,1-9.63H500.22a40.66,40.66,0,0,1,1,9.63,42.58,42.58,0,0,1-1,9.63,40.66,40.66,0,0,1,1,9.63,42.61,42.61,0,0,1-1,9.64,40.66,40.66,0,0,1,1,9.63,42.58,42.58,0,0,1-1,9.63H481a42.58,42.58,0,0,1-1-9.63,40.66,40.66,0,0,1,1-9.63,42.61,42.61,0,0,1-1-9.64,40.66,40.66,0,0,1,1-9.63,42.58,42.58,0,0,1-1-9.63,40.66,40.66,0,0,1,1-9.63,42.58,42.58,0,0,1-1-9.63,40.69,40.69,0,0,1,1-9.64,42.46,42.46,0,0,1-1-9.63,40.66,40.66,0,0,1,1-9.63,42.58,42.58,0,0,1-1-9.63,40.69,40.69,0,0,1,1-9.64,42.46,42.46,0,0,1-1-9.63,40.66,40.66,0,0,1,1-9.63h67.43a40.66,40.66,0,0,1,1,9.63,42.46,42.46,0,0,1-1,9.63H558a40.69,40.69,0,0,1,1,9.64,42.58,42.58,0,0,1-1,9.63H553.2a40.66,40.66,0,0,1,1,9.63,42.46,42.46,0,0,1-1,9.63H538.75a40.69,40.69,0,0,1,1,9.64,42.58,42.58,0,0,1-1,9.63h4.81a40.6,40.6,0,0,1,1,9.63,42.54,42.54,0,0,1-1,9.63h7.23a40.66,40.66,0,0,1,1,9.63,42.61,42.61,0,0,1-1,9.64Zm-25-67.43a40.66,40.66,0,0,1,1-9.63,42.58,42.58,0,0,1-1-9.63,40.69,40.69,0,0,1,1-9.64H500.22a40.69,40.69,0,0,1,1,9.64,42.58,42.58,0,0,1-1,9.63,40.66,40.66,0,0,1,1,9.63,42.46,42.46,0,0,1-1,9.63h33.71A42.46,42.46,0,0,1,533,633.76Z"/><rect class="cls-4" x="168.67" y="1166.95" width="5.02" height="5.02"/><rect class="cls-4" x="173.69" y="1171.97" width="5.02" height="5.02"/><polygon class="cls-3" points="320.21 1101.73 320.21 1166.96 315.19 1166.96 315.19 1171.98 310.18 1171.98 310.18 1177 173.69 1177 173.69 1171.98 168.67 1171.98 168.67 1166.96 163.65 1166.96 163.65 1101.73 168.67 1101.73 168.67 1096.72 315.19 1096.72 315.19 1101.73 320.21 1101.73"/><text class="cls-5" transform="translate(185.25 1163.97)">YES</text><rect class="cls-4" x="163.65" y="1101.73" width="5.02" height="5.02"/><rect class="cls-4" x="163.65" y="1106.75" width="5.02" height="5.02"/><rect class="cls-4" x="163.65" y="1111.77" width="5.02" height="5.02"/><rect class="cls-4" x="163.65" y="1116.78" width="5.02" height="5.02"/><rect class="cls-4" x="163.65" y="1121.8" width="5.02" height="5.02"/><rect class="cls-4" x="163.65" y="1126.82" width="5.02" height="5.02"/><rect class="cls-4" x="163.65" y="1131.84" width="5.02" height="5.02"/><rect class="cls-4" x="163.65" y="1136.85" width="5.02" height="5.02"/><rect class="cls-4" x="163.65" y="1141.87" width="5.02" height="5.02"/><rect class="cls-4" x="163.65" y="1146.89" width="5.02" height="5.02"/><rect class="cls-4" x="163.65" y="1151.9" width="5.02" height="5.02"/><rect class="cls-4" x="163.65" y="1156.92" width="5.02" height="5.02"/><rect class="cls-4" x="163.65" y="1161.94" width="5.02" height="5.02"/><rect class="cls-4" x="158.64" y="1101.73" width="5.02" height="5.02"/><rect class="cls-4" x="163.65" y="1096.72" width="5.02" height="5.02"/><rect class="cls-4" x="158.64" y="1096.72" width="5.02" height="5.02"/><rect class="cls-4" x="158.64" y="1106.75" width="5.02" height="5.02"/><rect class="cls-4" x="158.64" y="1111.77" width="5.02" height="5.02"/><rect class="cls-4" x="158.64" y="1116.78" width="5.02" height="5.02"/><rect class="cls-4" x="158.64" y="1121.8" width="5.02" height="5.02"/><rect class="cls-4" x="158.64" y="1126.82" width="5.02" height="5.02"/><rect class="cls-4" x="158.64" y="1131.84" width="5.02" height="5.02"/><rect class="cls-4" x="158.64" y="1136.85" width="5.02" height="5.02"/><rect class="cls-4" x="158.64" y="1141.87" width="5.02" height="5.02"/><rect class="cls-4" x="158.64" y="1146.89" width="5.02" height="5.02"/><rect class="cls-4" x="158.64" y="1151.9" width="5.02" height="5.02"/><rect class="cls-4" x="158.64" y="1156.92" width="5.02" height="5.02"/><rect class="cls-4" x="158.64" y="1161.94" width="5.02" height="5.02"/><rect class="cls-4" x="163.65" y="1166.95" width="5.02" height="5.02"/><rect class="cls-4" x="168.67" y="1171.97" width="5.02" height="5.02"/><rect class="cls-4" x="426.49" y="1166.95" width="5.02" height="5.02"/><rect class="cls-4" x="431.51" y="1171.97" width="5.02" height="5.02"/><polygon class="cls-3" points="578.03 1101.73 578.03 1166.96 573.02 1166.96 573.02 1171.98 568 1171.98 568 1177 431.51 1177 431.51 1171.98 426.49 1171.98 426.49 1166.96 421.48 1166.96 421.48 1101.73 426.49 1101.73 426.49 1096.72 573.02 1096.72 573.02 1101.73 578.03 1101.73"/><text class="cls-5" transform="translate(461.41 1163.97)">NO</text><rect class="cls-4" x="421.47" y="1101.73" width="5.02" height="5.02"/><rect class="cls-4" x="421.47" y="1106.75" width="5.02" height="5.02"/><rect class="cls-4" x="421.47" y="1111.77" width="5.02" height="5.02"/><rect class="cls-4" x="421.47" y="1116.78" width="5.02" height="5.02"/><rect class="cls-4" x="421.47" y="1121.8" width="5.02" height="5.02"/><rect class="cls-4" x="421.47" y="1126.82" width="5.02" height="5.02"/><rect class="cls-4" x="421.47" y="1131.84" width="5.02" height="5.02"/><rect class="cls-4" x="421.47" y="1136.85" width="5.02" height="5.02"/><rect class="cls-4" x="421.47" y="1141.87" width="5.02" height="5.02"/><rect class="cls-4" x="421.47" y="1146.89" width="5.02" height="5.02"/><rect class="cls-4" x="421.47" y="1151.9" width="5.02" height="5.02"/><rect class="cls-4" x="421.47" y="1156.92" width="5.02" height="5.02"/><rect class="cls-4" x="421.47" y="1161.94" width="5.02" height="5.02"/><rect class="cls-4" x="416.46" y="1101.73" width="5.02" height="5.02"/><rect class="cls-4" x="421.47" y="1096.72" width="5.02" height="5.02"/><rect class="cls-4" x="416.46" y="1096.72" width="5.02" height="5.02"/><rect class="cls-4" x="416.46" y="1106.75" width="5.02" height="5.02"/><rect class="cls-4" x="416.46" y="1111.77" width="5.02" height="5.02"/><rect class="cls-4" x="416.46" y="1116.78" width="5.02" height="5.02"/><rect class="cls-4" x="416.46" y="1121.8" width="5.02" height="5.02"/><rect class="cls-4" x="416.46" y="1126.82" width="5.02" height="5.02"/><rect class="cls-4" x="416.46" y="1131.84" width="5.02" height="5.02"/><rect class="cls-4" x="416.46" y="1136.85" width="5.02" height="5.02"/><rect class="cls-4" x="416.46" y="1141.87" width="5.02" height="5.02"/><rect class="cls-4" x="416.46" y="1146.89" width="5.02" height="5.02"/><rect class="cls-4" x="416.46" y="1151.9" width="5.02" height="5.02"/><rect class="cls-4" x="416.46" y="1156.92" width="5.02" height="5.02"/><rect class="cls-4" x="416.46" y="1161.94" width="5.02" height="5.02"/><rect class="cls-4" x="421.47" y="1166.95" width="5.02" height="5.02"/><rect class="cls-4" x="426.49" y="1171.97" width="5.02" height="5.02"/><text class="cls-6" transform="translate(212.91 1019.25)">PLAY AGAIN?</text></svg>