<svg id="Layer_1" data-name="Layer 1" xmlns="http://www.w3.org/2000/svg" viewBox="0 0 40.81 32.55"><defs><style>.cls-1{fill:#fff;}</style></defs><rect class="cls-1" x="4.55" y="23.7" width="4.73" height="4.73"/><polygon class="cls-1" points="32.89 4.76 32.89 9.49 32.89 14.23 32.89 18.96 32.89 23.7 32.89 28.43 37.63 28.43 37.63 23.7 37.63 18.96 37.63 14.23 37.63 9.49 37.63 4.76 32.89 4.76"/><polygon class="cls-1" points="25.8 14.23 25.8 18.96 25.8 23.7 25.8 28.43 30.54 28.43 30.54 23.7 30.54 18.96 30.54 14.23 30.54 9.49 25.8 9.49 25.8 14.23"/><polygon class="cls-1" points="18.72 18.96 18.72 23.7 18.72 28.43 23.45 28.43 23.45 23.7 23.45 18.96 23.45 14.23 18.72 14.23 18.72 18.96"/><polygon class="cls-1" points="11.63 23.7 11.63 28.43 16.37 28.43 16.37 23.7 16.37 18.96 11.63 18.96 11.63 23.7"/></svg>